<svg width="414" height="431" viewBox="0 0 414 431" fill="none" xmlns="http://www.w3.org/2000/svg">
<g opacity="0.1">
<mask id="mask0_52_3329" style="mask-type:alpha" maskUnits="userSpaceOnUse" x="0" y="0" width="414" height="431">
<g clip-path="url(#clip0_52_3329)">
<path d="M97.0838 155.701L117.232 111.403C118.285 109.064 119.991 107.078 122.145 105.685C124.299 104.292 126.81 103.551 129.376 103.551C131.941 103.551 134.452 104.292 136.606 105.685C138.761 107.078 140.467 109.064 141.52 111.403L161.668 155.701C166.774 166.914 175.468 176.056 186.335 181.576L212.555 194.859C214.775 196.016 216.635 197.761 217.934 199.902C219.232 202.043 219.918 204.499 219.918 207.003C219.918 209.506 219.232 211.962 217.934 214.103C216.635 216.244 214.775 217.989 212.555 219.147L186.335 232.464C175.468 237.984 166.774 247.092 161.668 258.304L141.52 302.602C140.467 304.942 138.761 306.927 136.606 308.32C134.452 309.713 131.941 310.454 129.376 310.454C126.81 310.454 124.299 309.713 122.145 308.32C119.991 306.927 118.285 304.942 117.232 302.602L97.0838 258.304C91.9778 247.092 83.2838 237.949 72.4163 232.429L46.1963 219.147C43.9763 217.989 42.1161 216.244 40.818 214.103C39.52 211.962 38.8336 209.506 38.8336 207.003C38.8336 204.499 39.52 202.043 40.818 199.902C42.1161 197.761 43.9763 196.016 46.1963 194.859L72.4163 181.542C83.2838 176.022 91.9778 166.914 97.0838 155.701ZM267.962 73.6601L283.039 40.4366C283.829 38.6781 285.111 37.1855 286.73 36.1383C288.349 35.0911 290.236 34.534 292.164 34.534C294.092 34.534 295.979 35.0911 297.598 36.1383C299.217 37.1855 300.499 38.6781 301.289 40.4366L316.4 73.6601C320.195 82.0436 326.75 88.9091 334.892 93.0491L354.557 103.02C356.22 103.89 357.612 105.199 358.584 106.805C359.556 108.41 360.069 110.251 360.069 112.128C360.069 114.004 359.556 115.845 358.584 117.451C357.612 119.056 356.22 120.365 354.557 121.236L334.892 131.241C326.75 135.381 320.23 142.212 316.4 150.595L301.289 183.819C300.499 185.577 299.217 187.07 297.598 188.117C295.979 189.164 294.092 189.721 292.164 189.721C290.236 189.721 288.349 189.164 286.73 188.117C285.111 187.07 283.829 185.577 283.039 183.819L267.962 150.595C264.161 142.221 257.629 135.385 249.436 131.206L229.771 121.236C228.108 120.365 226.716 119.056 225.744 117.451C224.772 115.845 224.259 114.004 224.259 112.128C224.259 110.251 224.772 108.41 225.744 106.805C226.716 105.199 228.108 103.89 229.771 103.02L249.436 93.0146C257.612 88.8746 264.133 82.0436 267.962 73.6601ZM226.183 291.39L238.741 263.686C239.396 262.221 240.461 260.977 241.808 260.104C243.155 259.231 244.726 258.766 246.331 258.766C247.936 258.766 249.507 259.231 250.853 260.104C252.2 260.977 253.266 262.221 253.921 263.686L266.548 291.39C269.722 298.393 275.173 304.086 281.969 307.536L298.322 315.816C299.72 316.535 300.892 317.626 301.711 318.968C302.529 320.309 302.962 321.851 302.962 323.423C302.962 324.995 302.529 326.536 301.711 327.878C300.892 329.22 299.72 330.311 298.322 331.03L281.969 339.345C275.145 342.821 269.707 348.514 266.548 355.491L253.955 383.194C253.3 384.659 252.235 385.904 250.888 386.777C249.541 387.65 247.97 388.114 246.365 388.114C244.76 388.114 243.19 387.65 241.843 386.777C240.496 385.904 239.431 384.659 238.775 383.194L226.183 355.491C223.024 348.514 217.585 342.821 210.761 339.345L194.374 331.065C192.976 330.345 191.804 329.255 190.985 327.913C190.167 326.571 189.734 325.029 189.734 323.457C189.734 321.886 190.167 320.344 190.985 319.002C191.804 317.66 192.976 316.57 194.374 315.85L210.761 307.536C217.585 304.06 223.024 298.366 226.183 291.39Z" fill="black"/>
</g>
</mask>
<g mask="url(#mask0_52_3329)">
<rect width="414" height="430.689" fill="#00EAB4"/>
</g>
</g>
<defs>
<clipPath id="clip0_52_3329">
<rect width="413.975" height="430.663" fill="white"/>
</clipPath>
</defs>
</svg>
