<svg width="75" height="78" viewBox="0 0 75 78" fill="none" xmlns="http://www.w3.org/2000/svg">
<mask id="mask0_32_25562" style="mask-type:alpha" maskUnits="userSpaceOnUse" x="0" y="0" width="75" height="78">
<g clip-path="url(#clip0_32_25562)">
<path d="M17.5823 28.1984L21.2313 20.1758C21.4219 19.7521 21.7309 19.3925 22.1211 19.1403C22.5112 18.888 22.966 18.7538 23.4306 18.7538C23.8952 18.7538 24.3499 18.888 24.7401 19.1403C25.1303 19.3925 25.4393 19.7521 25.6299 20.1758L29.2788 28.1984C30.2036 30.2291 31.7781 31.8848 33.7462 32.8845L38.4948 35.29C38.8969 35.4997 39.2338 35.8156 39.4689 36.2034C39.7039 36.5911 39.8282 37.0359 39.8282 37.4894C39.8282 37.9428 39.7039 38.3876 39.4689 38.7754C39.2338 39.1631 38.8969 39.479 38.4948 39.6887L33.7462 42.1005C31.7781 43.1002 30.2036 44.7497 29.2788 46.7803L25.6299 54.8029C25.4393 55.2266 25.1303 55.5862 24.7401 55.8385C24.3499 56.0908 23.8952 56.225 23.4306 56.225C22.966 56.225 22.5112 56.0908 22.1211 55.8385C21.7309 55.5862 21.4219 55.2266 21.2313 54.8029L17.5823 46.7803C16.6576 44.7497 15.0831 43.094 13.1149 42.0943L8.36636 39.6887C7.96431 39.479 7.62742 39.1631 7.39233 38.7754C7.15725 38.3876 7.03295 37.9428 7.03295 37.4894C7.03295 37.0359 7.15725 36.5911 7.39233 36.2034C7.62742 35.8156 7.96431 35.4997 8.36636 35.29L13.1149 32.8783C15.0831 31.8786 16.6576 30.2291 17.5823 28.1984ZM48.5293 13.3404L51.2598 7.32343C51.4029 7.00495 51.6351 6.73463 51.9283 6.54498C52.2215 6.35534 52.5632 6.25444 52.9124 6.25444C53.2616 6.25444 53.6033 6.35534 53.8965 6.54498C54.1897 6.73463 54.4218 7.00495 54.565 7.32343L57.3017 13.3404C57.989 14.8587 59.1761 16.102 60.6507 16.8518L64.2121 18.6575C64.5132 18.8152 64.7654 19.0522 64.9414 19.343C65.1173 19.6338 65.2104 19.9672 65.2104 20.307C65.2104 20.6469 65.1173 20.9803 64.9414 21.2711C64.7654 21.5618 64.5132 21.7989 64.2121 21.9565L60.6507 23.7685C59.1761 24.5183 57.9952 25.7554 57.3017 27.2737L54.565 33.2906C54.4218 33.6091 54.1897 33.8794 53.8965 34.0691C53.6033 34.2587 53.2616 34.3596 52.9124 34.3596C52.5632 34.3596 52.2215 34.2587 51.9283 34.0691C51.6351 33.8794 51.4029 33.6091 51.2598 33.2906L48.5293 27.2737C47.8408 25.757 46.6579 24.519 45.1741 23.7623L41.6126 21.9565C41.3115 21.7989 41.0593 21.5618 40.8834 21.2711C40.7074 20.9803 40.6144 20.6469 40.6144 20.307C40.6144 19.9672 40.7074 19.6338 40.8834 19.343C41.0593 19.0522 41.3115 18.8152 41.6126 18.6575L45.1741 16.8456C46.6549 16.0958 47.8358 14.8587 48.5293 13.3404ZM40.9628 52.7723L43.2372 47.7551C43.3558 47.4897 43.5488 47.2644 43.7927 47.1063C44.0366 46.9482 44.3211 46.864 44.6117 46.864C44.9024 46.864 45.1869 46.9482 45.4308 47.1063C45.6747 47.2644 45.8677 47.4897 45.9863 47.7551L48.2731 52.7723C48.848 54.0407 49.8352 55.0716 51.0661 55.6964L54.0277 57.196C54.2808 57.3263 54.4931 57.5238 54.6413 57.7668C54.7896 58.0098 54.868 58.289 54.868 58.5737C54.868 58.8584 54.7896 59.1375 54.6413 59.3806C54.4931 59.6236 54.2808 59.8211 54.0277 59.9514L51.0661 61.4572C49.8302 62.0867 48.8453 63.1179 48.2731 64.3813L45.9926 69.3986C45.8739 69.6639 45.681 69.8892 45.437 70.0474C45.1931 70.2055 44.9087 70.2896 44.618 70.2896C44.3273 70.2896 44.0428 70.2055 43.7989 70.0474C43.555 69.8892 43.3621 69.6639 43.2434 69.3986L40.9628 64.3813C40.3907 63.1179 39.4058 62.0867 38.1699 61.4572L35.2021 59.9576C34.949 59.8273 34.7366 59.6299 34.5884 59.3868C34.4402 59.1438 34.3617 58.8646 34.3617 58.5799C34.3617 58.2953 34.4402 58.0161 34.5884 57.773C34.7366 57.53 34.949 57.3325 35.2021 57.2022L38.1699 55.6964C39.4058 55.0669 40.3907 54.0357 40.9628 52.7723Z" fill="black"/>
</g>
</mask>
<g mask="url(#mask0_32_25562)">
<rect width="74.9775" height="78" fill="#00EAB4"/>
</g>
<defs>
<clipPath id="clip0_32_25562">
<rect width="74.8306" height="77.8472" fill="white" transform="scale(1.00196)"/>
</clipPath>
</defs>
</svg>
