<svg width="86" height="69" viewBox="0 0 86 69" fill="none" xmlns="http://www.w3.org/2000/svg">
<path d="M0.530615 35.019L13.1946 64.4615C13.2711 64.6402 13.3555 64.8122 13.4478 64.981C15.0454 67.9414 18.6398 69.191 21.7292 67.86L82.0706 41.9059C85.161 40.5784 86.7249 37.1097 85.6735 33.9148C85.6144 33.7319 85.5474 33.5523 85.4705 33.3737L72.8064 3.93166C71.7466 1.46711 69.2813 -0.0929586 66.6003 0.00429985C65.8772 0.0296676 65.1638 0.177755 64.4903 0.442236C64.4181 0.466617 64.3454 0.497564 64.2728 0.528979L3.93235 26.483C2.34818 27.1625 1.09933 28.4442 0.461194 30.0455C-0.176946 31.6468 -0.15197 33.4362 0.530615 35.019Z" fill="url(#paint0_linear_32_24517)"/>
<defs>
<linearGradient id="paint0_linear_32_24517" x1="1351.54" y1="-60.596" x2="1204.73" y2="-1.98392" gradientUnits="userSpaceOnUse">
<stop stop-color="#E7C6C6"/>
<stop offset="0.172" stop-color="#EDD6D6"/>
<stop offset="0.467" stop-color="#F7ECEC"/>
<stop offset="0.619701" stop-color="#FDFAFA"/>
<stop offset="1" stop-color="white"/>
</linearGradient>
</defs>
</svg>
