<svg width="23" height="10" viewBox="0 0 23 10" fill="none" xmlns="http://www.w3.org/2000/svg">
<path d="M0.179053 6.38495C0.14457 6.28071 0.115555 6.17474 0.0921247 6.06747C0.0788965 6.0122 0.0581094 5.95976 0.0472434 5.90354C0.0160803 5.73524 0.00026751 5.56446 0 5.39331L9.91356 0C9.91378 0.171314 9.92959 0.342253 9.9608 0.510701C9.97119 0.565976 9.99151 0.617471 10.0052 0.671801C10.0293 0.782755 10.0597 0.892227 10.0964 0.999671C10.1039 1.02093 10.1158 1.0403 10.1238 1.06156C10.1737 1.18879 10.2321 1.31254 10.2986 1.43195C10.317 1.46502 10.3383 1.49573 10.3576 1.52643C10.4199 1.62881 10.4883 1.72741 10.5622 1.82171C10.5839 1.84958 10.6052 1.87793 10.6279 1.90533C10.7213 2.01661 10.8227 2.12098 10.9312 2.21761C10.9529 2.2365 10.9784 2.25257 10.9992 2.27099C11.0869 2.3435 11.179 2.4104 11.2751 2.4713C11.3294 2.50626 11.3857 2.53744 11.4424 2.56815C11.508 2.60311 11.5751 2.63382 11.6431 2.66264C11.8369 2.75051 12.0415 2.812 12.2516 2.84547L23 4.35726L13.0864 9.7501L2.33855 8.23831C2.12823 8.20489 1.92339 8.14324 1.72958 8.055C1.70596 8.04508 1.6795 8.04414 1.65588 8.03327C1.61195 8.01248 1.57179 7.98319 1.5288 7.95957C1.4721 7.92886 1.41636 7.89815 1.36156 7.86508C1.33415 7.8476 1.30392 7.83485 1.27699 7.81784C1.21038 7.7706 1.14849 7.71863 1.08565 7.66619C1.06345 7.64776 1.03841 7.6317 1.01762 7.61233C1.01054 7.60619 1.00203 7.60099 0.994474 7.59438C0.911314 7.51869 0.832451 7.43841 0.758257 7.35391C0.743139 7.3369 0.730856 7.31753 0.71621 7.30052C0.693061 7.27312 0.672274 7.24478 0.650542 7.2169C0.616527 7.17344 0.579677 7.13234 0.548024 7.08698C0.511174 7.03407 0.479993 6.97691 0.44645 6.92211C0.426608 6.88951 0.405821 6.8588 0.386924 6.82762C0.377947 6.81156 0.366609 6.79691 0.358105 6.78038C0.303274 6.67562 0.254686 6.56772 0.212595 6.45723C0.204092 6.43597 0.192753 6.4166 0.184722 6.39534L0.179053 6.38495Z" fill="url(#paint0_linear_32_24575)"/>
<defs>
<linearGradient id="paint0_linear_32_24575" x1="64.7964" y1="33.2692" x2="65.9655" y2="-12.1712" gradientUnits="userSpaceOnUse">
<stop stop-color="#F5CEC7"/>
<stop offset="1" stop-color="#FF9685"/>
</linearGradient>
</defs>
</svg>
