<svg width="381" height="35" viewBox="0 0 381 35" fill="none" xmlns="http://www.w3.org/2000/svg">
<path d="M381 0C381 4.41146 380.178 8.67433 378.532 12.5627C378.308 13.1611 378.083 13.759 377.785 14.2825C377.336 15.3297 376.812 16.3015 376.214 17.2739C375.167 19.1433 373.971 20.7883 372.55 22.359C372.101 22.9574 371.578 23.5552 371.054 24.0788C367.241 27.8924 362.53 30.8089 357.22 32.454C354.08 33.4263 350.715 34.0247 347.275 34.0247H34.0252C30.1363 34.0247 26.4723 33.4263 23.0322 32.2301C9.57189 27.6685 0 14.9562 0 0.000505379H381V0Z" fill="#7712B2"/>
</svg>
