<svg width="96" height="129" viewBox="0 0 96 129" fill="none" xmlns="http://www.w3.org/2000/svg">
<path d="M25.1772 77.2677L28.4561 73.4759L22.9069 73.6254C22.7 73.631 22.5256 73.4663 22.5206 73.2589C22.5145 73.0514 22.6792 72.8776 22.8871 72.872L32.8015 72.6046L29.824 67.4616C29.7224 67.2847 29.7808 67.0504 29.9623 66.9467C30.1423 66.8435 30.372 66.905 30.4773 67.0849L33.659 72.5817L40.9025 72.3337C37.519 68.9267 34.6671 64.3378 31.9149 55.9241C29.6049 48.8651 27.2365 42.9088 24.951 37.783L24.9464 37.7856L13.3997 34.1636L8.4565 37.0073C8.27654 37.1105 8.04626 37.048 7.94154 36.868C7.83631 36.6896 7.90087 36.4578 8.08134 36.3531L12.4262 33.853L7.13733 32.1663C6.93907 32.1032 6.82978 31.8902 6.8923 31.6925C6.95585 31.4947 7.16834 31.3849 7.36609 31.4485L16.8153 34.4615L15.6985 28.6251C15.6603 28.4243 15.793 28.2225 15.9979 28.1844C16.2012 28.1457 16.3985 28.2799 16.4386 28.4843L17.6322 34.7223L24.5702 36.8797C17.2281 20.6669 10.9078 13.9856 10.8234 13.8992L12.1664 12.5927L6.06877 5.58305L0.367612 5.44631C0.160205 5.44122 -0.00399287 5.26787 7.39408e-05 5.05945C0.0026157 4.85153 0.177997 4.68835 0.386421 4.69191L5.39826 4.81239L1.75439 0.624085C1.61765 0.467513 1.63442 0.229096 1.7915 0.0923492C1.94757 -0.0438889 2.18649 -0.0276217 2.32273 0.129459L8.83217 7.61188L10.9093 2.04442C10.981 1.85328 11.1991 1.74957 11.3943 1.82379C11.5885 1.897 11.6876 2.11355 11.6154 2.30876L9.39543 8.25952L12.7068 12.0661L12.9839 11.7966C13.3133 12.1352 18.9199 18.1668 25.714 32.2669L29.1073 26.0249L25.6144 20.7202C25.5005 20.5464 25.5483 20.313 25.7216 20.1982C25.8955 20.0823 26.1309 20.1351 26.2437 20.3054L29.5119 25.2685L34.1857 16.5207C34.2843 16.3377 34.5131 16.2686 34.6961 16.3662C34.8791 16.4638 34.9487 16.6931 34.8511 16.8761L32.2346 21.772L37.093 20.5357C37.2953 20.4854 37.5032 20.6064 37.552 20.8072C37.6028 21.01 37.4808 21.2154 37.28 21.2667L31.7532 22.6733L26.1202 33.0971C28.9166 38.9955 31.8783 46.1215 34.7784 54.9867C36.5144 60.2908 38.255 63.9179 40.1634 66.7103L42.4881 59.8958L38.1524 55.2551C38.011 55.1021 38.0192 54.8647 38.1702 54.7228C38.3216 54.5795 38.5631 54.5917 38.7024 54.7406L42.7595 59.0835L45.894 49.6739C45.9596 49.4772 46.1736 49.3699 46.3709 49.4355C46.5676 49.5011 46.6749 49.7151 46.6093 49.9123L44.855 55.1793L49.4357 53.1419C49.6269 53.058 49.8516 53.1424 49.9339 53.3325C50.0178 53.5236 49.9329 53.7468 49.7433 53.8307L44.5322 56.1483L40.7078 67.4459C43.4784 71.2056 46.6271 73.4032 50.7056 76.161C55.8008 79.6061 62.3717 84.0557 71.1977 93.753L73.8356 87.8079L69.9284 82.8006C69.8008 82.6359 69.8298 82.3995 69.993 82.2714C70.1566 82.1418 70.3961 82.1753 70.5216 82.3365L74.1782 87.0209L78.1347 77.926C78.2176 77.7359 78.4402 77.648 78.6303 77.7308C78.821 77.8137 78.9084 78.0363 78.8261 78.227L76.6117 83.3176L81.3551 81.6949C81.5529 81.6283 81.7689 81.7321 81.834 81.9293C81.9006 82.1265 81.7964 82.3411 81.6001 82.4087L76.204 84.255L71.7457 94.3722C78.425 101.796 86.3664 112.184 95.9285 127.396L93.3761 129C81.8284 110.63 72.7065 99.4059 65.3558 91.9926C65.2999 92.1029 65.2734 92.2437 65.1418 92.2575L53.1111 93.5675L49.7229 98.1543C49.5994 98.3211 49.363 98.3557 49.1953 98.2331C49.0275 98.1111 48.9935 97.8737 49.1165 97.7055L52.0954 93.6727L46.5737 94.2482C46.3673 94.269 46.1818 94.1185 46.1599 93.9122C46.1391 93.7058 46.289 93.5197 46.4954 93.4984L56.3605 92.471L52.9977 87.5715C52.8818 87.4027 52.923 87.1648 53.0953 87.0479C53.2662 86.9315 53.5005 86.9747 53.6189 87.146L57.213 92.3825L64.8886 91.5275C58.3044 84.9652 53.1543 81.455 49.0174 78.6581C46.227 76.7711 43.791 75.1225 41.5883 73.0515L41.5741 73.0662L29.4789 73.449L25.7481 77.7628C25.6123 77.9189 25.3744 77.9362 25.2163 77.8005C25.0572 77.6658 25.042 77.4263 25.1772 77.2677Z" fill="#DB97FF"/>
</svg>
