<svg width="6" height="7" viewBox="0 0 6 7" fill="none" xmlns="http://www.w3.org/2000/svg">
<path fill-rule="evenodd" clip-rule="evenodd" d="M4.02584 4.65271C4.1838 4.82464 4.33531 4.99442 4.47983 5.15989L5.81493 4.58394C5.3493 4.0782 4.91394 3.61257 4.50884 3.18706C4.10374 2.76154 3.71512 2.36343 3.34298 1.99272C2.97119 1.62272 2.61051 1.27439 2.26093 0.947735C1.91135 0.621078 1.56302 0.305166 1.21595 0L0.0339628 0.508253C0.0124722 0.971017 0.00118966 1.44166 0.000115128 1.92018C-0.000959402 2.39871 0.00548778 2.90016 0.0194567 3.42453C0.032351 3.94818 0.0543789 4.50335 0.0855403 5.09005C0.116702 5.67674 0.156101 6.3134 0.203739 7.00003L1.49908 6.44288C1.47759 6.22583 1.45825 6.00053 1.44106 5.767C1.42387 5.53347 1.40685 5.30066 1.39002 5.06856L3.55305 4.13801C3.65643 4.24986 3.75981 4.36264 3.86334 4.47558C3.91746 4.53461 3.97162 4.5937 4.02584 4.65271ZM1.15756 1.90095C1.15165 1.73977 1.1452 1.61244 1.13822 1.52003C1.20591 1.5845 1.29653 1.6744 1.41007 1.78974C1.52361 1.90507 1.65506 2.03795 1.80442 2.18839C1.95235 2.33954 2.11353 2.50734 2.28796 2.6918C2.46239 2.87626 2.64327 3.07058 2.8306 3.27474L1.24674 3.95599C1.23116 3.67876 1.21827 3.41281 1.20913 3.15815C1.2 2.90349 1.19087 2.67085 1.1812 2.45971C1.17153 2.24856 1.16347 2.06213 1.15756 1.90095Z" fill="#662318"/>
</svg>
