<svg width="13" height="20" viewBox="0 0 13 20" fill="none" xmlns="http://www.w3.org/2000/svg">
<path d="M2.25536 7.62097C2.23121 7.51172 2.20114 7.40387 2.1653 7.29789C2.15768 7.27692 2.14624 7.25786 2.13814 7.23737C2.08786 7.10816 2.02879 6.98254 1.96135 6.8614C1.94277 6.82852 1.92132 6.79754 1.90179 6.76609C1.83939 6.66303 1.77097 6.56375 1.69688 6.46874C1.67449 6.44015 1.65304 6.41108 1.62969 6.38345C1.53562 6.27106 1.43354 6.16564 1.32425 6.06799C1.30328 6.04988 1.27993 6.03416 1.25896 6.01653C1.16976 5.94275 1.07602 5.87463 0.978293 5.81258C0.923494 5.77731 0.867264 5.74634 0.810559 5.71727C0.744323 5.68153 0.67618 5.65056 0.607562 5.62197C0.414183 5.53405 0.209815 5.47266 0 5.43946L9.99927 0C10.2091 0.0332627 10.4134 0.0946509 10.6068 0.182507C10.6302 0.19299 10.6545 0.193943 10.6802 0.204903C10.725 0.22587 10.766 0.255891 10.8098 0.27924C10.8665 0.310214 10.9228 0.341188 10.9776 0.374544C11.0047 0.391699 11.0343 0.404088 11.0605 0.422196C11.1291 0.469848 11.1934 0.524647 11.2578 0.578494C11.2792 0.596125 11.3021 0.61185 11.323 0.629958C11.3302 0.636153 11.3378 0.640918 11.3445 0.647113C11.4286 0.723216 11.5082 0.804205 11.5827 0.889661C11.5985 0.907292 11.6118 0.927306 11.6271 0.945413C11.6504 0.973052 11.6714 1.00212 11.6938 1.03071C11.7276 1.0736 11.7638 1.1141 11.7953 1.15889C11.8329 1.21274 11.8644 1.27088 11.8987 1.32758C11.9187 1.35998 11.9401 1.39096 11.9587 1.42289C11.9678 1.43861 11.9787 1.45338 11.9873 1.47054C12.0428 1.57721 12.0921 1.68699 12.135 1.79934C12.1436 1.81983 12.155 1.83936 12.1627 1.86033L12.166 1.86748C12.2005 1.97118 12.2294 2.07664 12.2527 2.18341C12.2665 2.24059 12.2885 2.29539 12.3004 2.35353C12.3318 2.52343 12.3478 2.69585 12.348 2.86864L12.37 14.56L2.37068 20L2.34876 8.30811C2.34849 8.13531 2.33254 7.9629 2.30111 7.79299C2.29063 7.73295 2.26918 7.67815 2.25536 7.62097Z" fill="url(#paint0_linear_32_24574)"/>
<defs>
<linearGradient id="paint0_linear_32_24574" x1="50.8066" y1="0.249219" x2="42.4575" y2="13.7949" gradientUnits="userSpaceOnUse">
<stop stop-color="#E79796"/>
<stop offset="1" stop-color="#DC6963"/>
</linearGradient>
</defs>
</svg>
