<svg width="23" height="7" viewBox="0 0 23 7" fill="none" xmlns="http://www.w3.org/2000/svg">
<path d="M0.535659 5.4013C0.348807 5.43708 0.168291 5.50037 0 5.58909L9.85124 0.230154C9.87424 0.217479 9.89818 0.205273 9.92166 0.193536C10.0391 0.136276 10.1619 0.090828 10.2883 0.0578609C10.3198 0.04988 10.3545 0.0494105 10.3869 0.042838C10.4193 0.0362655 10.4625 0.0311014 10.501 0.0254679C10.696 -0.00537374 10.8944 -0.00821924 11.0902 0.0170175L21.7705 1.5193C21.9646 1.54417 22.1612 1.54116 22.3545 1.51038C22.3925 1.50522 22.4305 1.50099 22.4676 1.49301C22.6534 1.45712 22.8328 1.39383 23 1.30523L13.1488 6.66416C13.1258 6.67684 13.1018 6.68904 13.0783 6.70031C12.9615 6.75764 12.8391 6.80294 12.7131 6.83552C12.6821 6.8435 12.6483 6.8435 12.6192 6.85007C12.5901 6.85664 12.5441 6.86228 12.5056 6.86744C12.3123 6.89821 12.1157 6.90122 11.9216 6.87636L1.24126 5.37407C1.04547 5.34882 0.847074 5.35167 0.652086 5.38252C0.611712 5.38957 0.573216 5.39379 0.535659 5.4013Z" fill="url(#paint0_linear_32_24571)"/>
<defs>
<linearGradient id="paint0_linear_32_24571" x1="9.4105" y1="-31.3881" x2="9.04673" y2="18.9829" gradientUnits="userSpaceOnUse">
<stop stop-color="#F5CEC7"/>
<stop offset="1" stop-color="#FF9685"/>
</linearGradient>
</defs>
</svg>
