<svg width="108" height="174" viewBox="0 0 108 174" fill="none" xmlns="http://www.w3.org/2000/svg">
<g style="mix-blend-mode:multiply" opacity="0.2">
<path d="M63.1887 174L94.8771 160.37C101.275 157.619 105.718 151.664 106.533 144.747L107.485 136.628L61.1068 28.8026L30.1818 11.0996L25.4056 0L0 10.9286C1.23386 13.821 2.28272 16.826 3.46753 19.5652C3.8363 20.4152 4.20414 21.2653 4.57104 22.1156C8.33664 30.8316 12.1027 39.5465 15.8692 48.2604C21.8528 62.1015 27.8355 75.9419 33.8175 89.7814C39.5173 102.967 45.2171 116.152 50.9168 129.338C54.7334 138.165 58.5938 147.325 60.9401 156.647C62.4337 162.311 63.1895 168.143 63.1887 174Z" fill="url(#paint0_linear_32_24516)"/>
</g>
<defs>
<linearGradient id="paint0_linear_32_24516" x1="1212" y1="133.806" x2="1267.47" y2="133.806" gradientUnits="userSpaceOnUse">
<stop stop-color="#AA865D"/>
<stop offset="1" stop-color="#A67133"/>
</linearGradient>
</defs>
</svg>
