<svg width="5" height="5" viewBox="0 0 5 5" fill="none" xmlns="http://www.w3.org/2000/svg">
<path d="M0 0.634221L0.998016 0L1.47791 1.11606L2.76619 0.561656L3.1503 1.45421L1.86154 2.00861L2.43433 3.33994C2.50617 3.53112 2.62735 3.69987 2.78554 3.82903C2.96058 3.93077 3.17714 3.9291 3.35058 3.82468C3.46989 3.77272 3.58448 3.71057 3.69309 3.63891C3.79893 3.57035 3.89806 3.49196 3.98916 3.40477L4.49954 4.17493C4.38323 4.29146 4.25839 4.39915 4.12607 4.49712C3.95288 4.6215 3.76566 4.7251 3.56828 4.80576C3.32364 4.91963 3.05937 4.98533 2.7899 4.99927C2.58098 5.00636 2.37365 4.96061 2.18712 4.86623C2.00299 4.76734 1.84459 4.62667 1.72464 4.45551C1.58251 4.25583 1.46293 4.04101 1.3681 3.815L0 0.634221Z" fill="#662318"/>
</svg>
