<svg width="13" height="31" viewBox="0 0 13 31" fill="none" xmlns="http://www.w3.org/2000/svg">
<path d="M2.36939 29.0205L2.33064 8.23945C2.33038 8.06794 2.31456 7.8968 2.28338 7.72815C2.27346 7.67664 2.25408 7.62844 2.2418 7.57788C2.21707 7.463 2.18551 7.3497 2.14729 7.23858C2.1402 7.21968 2.1298 7.2022 2.12224 7.18329C2.0718 7.05334 2.01243 6.92702 1.94456 6.80525C1.9266 6.77312 1.90581 6.7424 1.88644 6.71074C1.82395 6.60815 1.75563 6.50922 1.68182 6.41445C1.66008 6.38657 1.63929 6.35869 1.61661 6.33175C1.52329 6.22003 1.42189 6.11531 1.31323 6.01845C1.29244 6.00002 1.26975 5.9849 1.24849 5.96741C1.16006 5.89405 1.0671 5.82634 0.970153 5.76469C0.91581 5.72972 0.860048 5.69947 0.803814 5.67018C0.738602 5.63473 0.671027 5.60355 0.602506 5.57567C0.410758 5.48832 0.20809 5.42728 0 5.3942L9.91607 0C10.1242 0.0330804 10.3268 0.0941192 10.5186 0.181461C10.5422 0.191384 10.5658 0.192329 10.5914 0.203198C10.6358 0.223991 10.6759 0.253762 10.7194 0.276917C10.7761 0.307633 10.8319 0.338349 10.8862 0.371427C10.9132 0.388439 10.9425 0.400726 10.9685 0.418683C11.0365 0.465938 11.1003 0.520282 11.1641 0.573681C11.1854 0.591638 11.208 0.606759 11.2293 0.625189L11.2501 0.641728C11.3335 0.717348 11.4124 0.797821 11.4864 0.882731C11.502 0.900215 11.5152 0.920063 11.5303 0.93802C11.5535 0.965428 11.5743 0.993781 11.5965 1.02213C11.63 1.06466 11.6655 1.10483 11.6971 1.14972C11.7345 1.20312 11.7661 1.26077 11.8001 1.31701C11.8195 1.34914 11.8403 1.37939 11.8587 1.41152C11.8677 1.42711 11.8791 1.44176 11.8876 1.45877C11.9432 1.56489 11.9924 1.67425 12.035 1.78625C12.043 1.8061 12.0539 1.82453 12.0615 1.84485L12.0648 1.85194C12.1005 1.9589 12.1303 2.06775 12.1541 2.178C12.1668 2.23046 12.1867 2.28055 12.1966 2.33394C12.2278 2.5026 12.2436 2.67373 12.2439 2.84525L12.2826 23.6263C12.3161 24.436 11.8989 25.1979 11.1986 25.6058L1.28251 31C1.98389 30.5928 2.40225 29.8308 2.36939 29.0205Z" fill="url(#paint0_linear_32_24578)"/>
<defs>
<linearGradient id="paint0_linear_32_24578" x1="-75.9223" y1="-1.98951" x2="-89.5031" y2="16.2345" gradientUnits="userSpaceOnUse">
<stop stop-color="#E79796"/>
<stop offset="1" stop-color="#DC6963"/>
</linearGradient>
</defs>
</svg>
