<svg width="80" height="165" viewBox="0 0 80 165" fill="none" xmlns="http://www.w3.org/2000/svg">
<path opacity="0.1" d="M0 48.4302L46.3376 156.162H46.3404L52.8866 161.048C58.4612 165.211 65.8341 166.081 72.2247 163.331L80 159.986C74.7897 156.65 70.2032 152.429 66.4478 147.512C66.2974 147.323 66.1498 147.133 66.0048 146.942C59.7106 138.684 55.3653 129.14 51.0741 119.682L24.4172 60.9509C21.7696 55.116 19.0762 49.1154 18.6991 42.7204C18.6524 41.947 18.6412 41.18 18.6547 40.4052C18.7373 35.8596 19.7171 31.3332 19.8684 26.775C20.0448 21.4452 17.3991 16.7171 15.2472 11.8377L14.8971 11.047C13.2758 7.36218 11.6524 3.67985 10.0271 0L3.64515 2.74425L8.41526 13.8342L0.00420109 48.4288L0 48.4302Z" fill="white"/>
</svg>
