<svg width="43" height="62" viewBox="0 0 43 62" fill="none" xmlns="http://www.w3.org/2000/svg">
<path d="M8.04429 27.564C4.89257 39.7274 8.25669 51.8145 15.7942 59.0386C16.9458 60.1446 18.2018 61.1364 19.5448 61.9999L19.513 61.9915C16.8075 61.2909 14.248 60.1151 11.9539 58.5189C2.33873 51.844 -2.3685 38.2561 1.179 24.5657C5.47641 7.98188 20.2895 -2.59185 34.5427 0.552856C34.8234 0.614141 35.1041 0.681039 35.3848 0.753552C37.8081 1.38097 40.116 2.39056 42.2215 3.74434C40.6997 3.35164 39.1423 3.11294 37.5728 3.03185C24.5828 2.3507 11.9567 12.4655 8.04429 27.564Z" fill="url(#paint0_linear_32_24672)"/>
<defs>
<linearGradient id="paint0_linear_32_24672" x1="3.41188" y1="14.1109" x2="12.2041" y2="52.743" gradientUnits="userSpaceOnUse">
<stop stop-color="#ECE5BA"/>
<stop offset="1" stop-color="#C6C09C"/>
</linearGradient>
</defs>
</svg>
