<svg width="355" height="365" viewBox="0 0 355 365" fill="none" xmlns="http://www.w3.org/2000/svg">
<path opacity="0.5" d="M28.0854 151.504C25.3442 184.695 19.3904 217.843 21.5267 251.077C23.6631 284.311 35.2177 318.752 61.1052 339.703C86.033 359.877 119.989 364.479 152.054 364.92C190.381 365.448 229.381 360.972 264.576 345.781C299.771 330.59 330.962 303.785 345.977 268.517C360.992 233.25 357.659 189.388 333.028 160.016C314.826 138.309 285.39 123.098 280.238 95.2414C275.872 71.6338 291.234 46.1273 281.687 24.1003C275.365 9.51497 259.148 1.00689 243.277 0.0985809C227.406 -0.809727 211.847 4.67986 197.519 11.5691C183.192 18.4583 169.537 26.8359 154.627 32.3522C125.672 43.0654 92.5959 42.1514 64.2761 29.8554C53.9608 25.3765 44.1279 19.4143 33.1076 17.162C22.0872 14.9097 9.06473 17.3957 2.78978 26.7266C-8.4063 43.3758 17.3938 56.1014 22.1901 70.4497C30.7893 96.1848 30.2882 124.8 28.0854 151.504Z" fill="#1760C6"/>
</svg>
