<svg width="5" height="5" viewBox="0 0 5 5" fill="none" xmlns="http://www.w3.org/2000/svg">
<path d="M0 1.16788C0.211785 0.999828 0.433219 0.844306 0.66317 0.702116C0.952327 0.520879 1.25528 0.362637 1.56922 0.228851C1.84791 0.0993232 2.14814 0.0224031 2.45478 0.00196436C2.6909 -0.0107615 2.92625 0.038513 3.13744 0.144893C3.3409 0.253754 3.51771 0.406335 3.65518 0.591671C3.81466 0.805956 3.94741 1.03889 4.05048 1.28532L5.00001 3.49322L3.89206 3.96999L2.99951 1.89552C2.90784 1.62534 2.74669 1.38404 2.53224 1.19587C2.33842 1.08621 2.10094 1.08773 1.90855 1.19987C1.82926 1.23318 1.74596 1.27316 1.65867 1.31981C1.57222 1.36529 1.49675 1.40826 1.43129 1.44824L2.73064 4.46674L1.62269 4.9435L0 1.16788Z" fill="#662318"/>
</svg>
