<svg width="4" height="5" viewBox="0 0 4 5" fill="none" xmlns="http://www.w3.org/2000/svg">
<path d="M0.201801 3.04393C0.0879435 2.7833 0.0211019 2.50457 0.00436754 2.22065C-0.0321749 1.6753 0.161848 1.13965 0.539164 0.74421C0.749854 0.525436 1.00379 0.352933 1.28481 0.237687C1.46844 0.15694 1.66006 0.095743 1.85651 0.0551089C2.03803 0.0192533 2.22256 0.00080001 2.4076 0L2.55136 0.94356C2.42697 0.949336 2.30308 0.963102 2.18045 0.984772C2.0366 1.01127 1.89636 1.05453 1.76258 1.11368C1.48738 1.20914 1.27392 1.42971 1.18753 1.7079C1.11985 2.00066 1.15505 2.3078 1.28721 2.57766C1.38945 2.86357 1.58469 3.1069 1.84165 3.26868C2.12602 3.39081 2.45112 3.37309 2.72052 3.22076C2.8588 3.16004 2.99211 3.08858 3.11922 3.00703C3.24919 2.92567 3.36904 2.82915 3.47623 2.71951L4 3.52505C3.87621 3.64972 3.74059 3.76206 3.59507 3.8605C3.40988 3.98664 3.21259 4.09404 3.00613 4.18109C2.70746 4.31821 2.38474 4.39523 2.05634 4.40776C1.78498 4.41594 1.51525 4.36304 1.26708 4.25297C1.02874 4.14294 0.817895 3.9812 0.649861 3.77951C0.46438 3.55824 0.313328 3.31025 0.201801 3.04393Z" fill="#662318"/>
</svg>
