<svg width="30" height="34" viewBox="0 0 30 34" fill="none" xmlns="http://www.w3.org/2000/svg">
<path d="M25.3833 31.8997C22.6532 34.0532 21.6713 33.9397 17.7205 34C15.8686 31.7178 12.9125 30.0645 13.4769 27.112C15.4581 23.596 16.1923 22.9277 15.9917 21.0772C15.861 20.1596 14.7163 19.1685 12.9809 19.0671C12.0709 19.5368 11.0032 20.8061 10.912 21.6528L9.33165 21.1714C9.64175 19.172 10.4808 15.0242 11.8773 14.3224C8.15206 14.2976 3.67893 14.6619 3.08863 13.005C1.23969 8.77053 -0.833208 3.7598 0.344357 2.75198C1.01674 2.29038 7.48727 -0.18484 12.0627 0.0745887C16.9412 -0.465044 23.3266 2.02487 26.2062 4.27055C28.6378 6.21069 30.015 10.5678 29.9375 14.3158C30.0753 20.1312 28.2781 26.0003 25.3833 31.8997Z" fill="#393768"/>
</svg>
