<svg width="5" height="5" viewBox="0 0 5 5" fill="none" xmlns="http://www.w3.org/2000/svg">
<path fill-rule="evenodd" clip-rule="evenodd" d="M4.77631 2.57535C4.74831 2.22977 4.6622 1.89138 4.52163 1.57443C4.38869 1.2534 4.19922 0.958828 3.96222 0.704735C3.75116 0.479226 3.49679 0.298608 3.21431 0.173687C2.93849 0.0552698 2.64086 -0.00383978 2.34072 0.00019333C2.01793 0.00566393 1.69951 0.0758145 1.4043 0.206495C1.10951 0.329841 0.842645 0.511408 0.619683 0.740323C0.409539 0.956289 0.246342 1.21339 0.14035 1.49547C0.0339096 1.78717 -0.012799 2.0973 0.00300082 2.40742C0.0209421 2.75418 0.102759 3.09464 0.244335 3.41169C0.377908 3.73314 0.567717 4.02821 0.804854 4.28305C1.01683 4.51135 1.27248 4.69477 1.55666 4.82244C1.83243 4.94392 2.13117 5.00443 2.43247 4.99982C3.09127 4.9782 3.71763 4.70871 4.18632 4.24523C4.39622 4.0297 4.5574 3.77161 4.65898 3.48842C4.76151 3.19562 4.80148 2.88457 4.77631 2.57535ZM2.65254 1.31474C2.93315 1.51296 3.14655 1.79214 3.26421 2.11492C3.41895 2.42686 3.47611 2.77818 3.42825 3.12308C3.3789 3.4016 3.18702 3.6338 2.92279 3.73476C2.6653 3.85663 2.36292 3.83556 2.12482 3.67915C1.84079 3.47961 1.62416 3.1984 1.50369 2.87285C1.35009 2.56435 1.29608 2.21577 1.34911 1.87526C1.40421 1.59784 1.59809 1.36826 1.86236 1.26747C2.11605 1.14473 2.41529 1.16263 2.65254 1.31474Z" fill="#662318"/>
</svg>
