<svg width="31" height="9" viewBox="0 0 31 9" fill="none" xmlns="http://www.w3.org/2000/svg">
<path d="M0.548843 5.53881C0.357415 5.57564 0.172474 5.64053 0 5.73139L10.1045 0.235732C10.1286 0.222733 10.1526 0.210697 10.1772 0.198661C10.2974 0.139349 10.4234 0.0927182 10.5532 0.0595245C10.5855 0.05134 10.6206 0.0508586 10.6533 0.0441184C10.6861 0.0373782 10.7313 0.0320824 10.7713 0.0263051C10.9711 -0.00557556 11.1744 -0.00849421 11.375 0.0176391L31 2.77582L20.8974 8.27147L1.27101 5.51233C1.07038 5.48645 0.867081 5.48937 0.667278 5.521C0.629244 5.52629 0.589766 5.53159 0.548843 5.53881Z" fill="url(#paint0_linear_32_24573)"/>
<defs>
<linearGradient id="paint0_linear_32_24573" x1="42.408" y1="8.27147" x2="73.408" y2="8.27147" gradientUnits="userSpaceOnUse">
<stop stop-color="#F5CEC7"/>
<stop offset="1" stop-color="#FF9685"/>
</linearGradient>
</defs>
</svg>
