<svg width="6" height="6" viewBox="0 0 6 6" fill="none" xmlns="http://www.w3.org/2000/svg">
<path fill-rule="evenodd" clip-rule="evenodd" d="M5.31806 3.56268C5.29607 3.25557 5.22063 2.95465 5.09515 2.67348C4.98013 2.39519 4.82552 2.13497 4.6361 1.90088C4.47291 1.69964 4.27184 1.53236 4.04427 1.40851C3.82882 1.29448 3.58939 1.2332 3.34565 1.22969C3.07529 1.22892 2.80794 1.28641 2.56178 1.39823C2.41925 1.45809 2.28385 1.53368 2.15809 1.62359C2.04023 1.70843 1.93095 1.80458 1.8318 1.91068L1.0107 0L0 0.642283L2.30262 6.00003C2.41236 5.98827 2.53631 5.96671 2.67397 5.93928C2.81164 5.91184 2.9547 5.87804 3.10118 5.83786C3.24767 5.79769 3.39611 5.7536 3.54456 5.70363C3.693 5.65366 3.83263 5.60123 3.96393 5.5444C4.25397 5.42529 4.51967 5.25392 4.7478 5.03881C4.94646 4.85015 5.10103 4.61996 5.20048 4.36468C5.2967 4.10887 5.3368 3.83535 5.31806 3.56268ZM2.74986 2.40369C3.26558 2.18192 3.67384 2.42117 3.97465 3.12142C4.11157 3.40244 4.15401 3.72018 4.09566 4.02728C4.02667 4.30312 3.82447 4.52627 3.55675 4.62204C3.45975 4.66417 3.36813 4.69847 3.2824 4.72688C3.19666 4.7553 3.12513 4.77637 3.06732 4.78959L2.2178 2.81424C2.27874 2.7287 2.35263 2.65317 2.4368 2.59035C2.53244 2.51457 2.63771 2.4518 2.74986 2.40369Z" fill="#662318"/>
</svg>
