<svg width="8" height="11" viewBox="0 0 8 11" fill="none" xmlns="http://www.w3.org/2000/svg">
<path d="M6.06373 4.8904C6.62291 7.04843 6.02605 9.19293 4.68874 10.4746C4.48443 10.6709 4.26158 10.8468 4.02332 11L4.02896 10.9985C4.50897 10.8742 4.96307 10.6656 5.37009 10.3824C7.07601 9.19816 7.91117 6.78739 7.28177 4.35845C6.51932 1.41614 3.89118 -0.459845 1.36238 0.0980877C1.31258 0.108961 1.26278 0.12083 1.21298 0.133695C0.783036 0.245012 0.373575 0.424134 4.53949e-06 0.664321C0.27 0.594647 0.546317 0.552298 0.824787 0.53791C3.12948 0.417061 5.36959 2.21163 6.06373 4.8904Z" fill="url(#paint0_linear_37_543)"/>
<defs>
<linearGradient id="paint0_linear_37_543" x1="6.88561" y1="2.50356" x2="5.3257" y2="9.35766" gradientUnits="userSpaceOnUse">
<stop stop-color="#ECE5BA"/>
<stop offset="1" stop-color="#C6C09C"/>
</linearGradient>
</defs>
</svg>
