<svg width="86" height="108" viewBox="0 0 86 108" fill="none" xmlns="http://www.w3.org/2000/svg">
<path d="M75.809 62.4901C75.7709 61.884 75.7357 61.2769 75.6792 60.6736C75.6449 60.3101 75.5937 59.9499 75.5532 59.5874C75.493 59.0503 75.4385 58.5124 75.3651 57.9777C75.3115 57.5931 75.241 57.2122 75.1803 56.829C75.0995 56.3225 75.0252 55.8142 74.9321 55.3106C74.8582 54.9137 74.7689 54.5215 74.6875 54.1265C74.5878 53.6403 74.4938 53.1522 74.3823 52.6688C74.2911 52.2724 74.1839 51.8802 74.0847 51.4857C73.9652 51.0107 73.8496 50.5334 73.7212 50.0618C73.6107 49.6626 73.4861 49.269 73.3676 48.873C73.2298 48.4117 73.0981 47.949 72.95 47.4915C72.8216 47.0932 72.6787 46.7001 72.5423 46.3046C72.3857 45.8518 72.2348 45.3971 72.0688 44.9485C71.9804 44.7105 71.8844 44.4782 71.7937 44.2398C71.5835 43.6924 71.3705 43.1465 71.1448 42.6057C71.0253 42.3184 70.9002 42.0339 70.7766 41.7485C70.565 41.2594 70.3477 40.7735 70.1248 40.2908C69.9894 39.9986 69.8519 39.7074 69.7124 39.4171C69.482 38.9374 69.2452 38.4611 69.0019 37.988C68.8608 37.7134 68.7221 37.4374 68.5787 37.1651C68.4296 36.883 68.2716 36.6065 68.1179 36.3267C67.6746 35.5188 67.2148 34.7214 66.7387 33.9346C66.5948 33.6971 66.4565 33.4573 66.3075 33.2217C65.7118 32.2643 65.0927 31.3238 64.45 30.4003C64.3198 30.2122 64.1825 30.0321 64.0498 29.8464C63.5483 29.1435 63.0338 28.4516 62.5065 27.7707C62.3065 27.5137 62.1053 27.258 61.9028 27.0038C61.3573 26.3219 60.7986 25.6525 60.2268 24.9954C60.0858 24.8341 59.9518 24.6662 59.8102 24.5087C59.1002 23.7084 58.371 22.9286 57.6227 22.1693C57.4346 21.977 57.239 21.7931 57.0476 21.6012C56.4607 21.0191 55.8637 20.4498 55.2564 19.8934C55.0293 19.6855 54.8027 19.4777 54.5727 19.2731C53.7263 18.5207 52.87 17.79 51.9864 17.0907C51.9117 17.0315 51.8331 16.9765 51.7579 16.9172C50.9387 16.2739 50.1008 15.6579 49.252 15.0612C48.9388 14.8407 48.6257 14.6211 48.3087 14.4076C48.0197 14.2129 47.7294 14.0206 47.4378 13.8306C47.0306 13.5673 46.6201 13.3133 46.2072 13.058C45.9171 12.8803 45.6274 12.702 45.3345 12.5299C44.9037 12.2769 44.4683 12.0338 44.0319 11.7931C43.7498 11.637 43.4676 11.4775 43.1855 11.3266C42.7059 11.0727 42.2201 10.8319 41.7339 10.5926C41.4861 10.4708 41.2411 10.3424 40.9918 10.2248C40.3059 9.90006 39.6134 9.59065 38.9143 9.29659C38.7399 9.22276 38.5626 9.15552 38.3872 9.08264C37.8377 8.85755 37.2844 8.64202 36.7273 8.43606C36.5114 8.35612 36.2951 8.27665 36.0784 8.20094C35.4482 7.97742 34.8142 7.76629 34.1763 7.56754C34.077 7.5365 33.9792 7.5017 33.88 7.47349C33.1483 7.25107 32.41 7.05028 31.6699 6.85936C31.4668 6.80764 31.2622 6.76108 31.0586 6.71171C30.4909 6.57471 29.9206 6.4479 29.3479 6.33129C29.1287 6.28426 28.9096 6.24053 28.6895 6.19868C27.932 6.05761 27.1716 5.92312 26.4056 5.81544C25.7167 5.71857 25.0321 5.64192 24.3497 5.57609C24.1344 5.5554 23.9209 5.54082 23.7065 5.52342C23.2362 5.48439 22.766 5.45101 22.2958 5.42702C22.0545 5.41433 21.8138 5.40445 21.5735 5.39599C21.117 5.37969 20.6625 5.37059 20.2098 5.36871C19.9883 5.36871 19.7659 5.36401 19.5449 5.36871C18.9834 5.37373 18.4249 5.3894 17.8694 5.41574C17.7683 5.42091 17.6663 5.42138 17.5652 5.42655C16.9116 5.46229 16.2631 5.51449 15.6184 5.57891C15.4303 5.59772 15.2479 5.62217 15.0626 5.64333C14.6018 5.69553 14.1428 5.7529 13.6867 5.81967C13.4614 5.85259 13.2376 5.88879 13.0133 5.925C12.5873 5.9946 12.1641 6.07046 11.7437 6.1526C11.5292 6.19445 11.3148 6.23489 11.1018 6.28003C10.6212 6.38113 10.1444 6.49258 9.67087 6.6092C9.52979 6.64399 9.38872 6.67456 9.24765 6.71077C8.62882 6.87159 8.01611 7.04604 7.4095 7.23414C7.2515 7.28116 7.09633 7.33759 6.93927 7.38838C6.48596 7.53462 6.03547 7.68698 5.58969 7.84874C5.38796 7.92162 5.18764 7.99733 4.98732 8.07351C4.57351 8.23025 4.16284 8.39421 3.7553 8.56538C3.56721 8.64296 3.3824 8.71914 3.19807 8.80049C2.68269 9.02527 2.17265 9.26038 1.66793 9.50585C1.60585 9.53641 1.5419 9.56369 1.47983 9.59425C0.980755 9.83971 0.487478 10.0947 0 10.3593L9.86742 4.99159C10.3546 4.72637 10.8477 4.47135 11.3468 4.22651L11.375 4.21193C11.4277 4.18607 11.4827 4.16491 11.5354 4.13811C12.0398 3.89358 12.5498 3.65847 13.0655 3.43275C13.2498 3.35281 13.4365 3.27664 13.6223 3.19764C14.0298 3.02741 14.4406 2.86346 14.8547 2.70577C15.0551 2.62959 15.2554 2.55388 15.4566 2.481C15.9029 2.31924 16.3534 2.16688 16.8067 2.02064C16.9633 1.96985 17.1185 1.9153 17.2769 1.8664C17.8835 1.6783 18.4961 1.50385 19.1146 1.34303C19.1405 1.33644 19.1649 1.32798 19.1908 1.3214C19.3051 1.29224 19.4221 1.27014 19.5364 1.24146C20.0104 1.1239 20.4868 1.01245 20.9673 0.912291C21.1804 0.865267 21.3953 0.826708 21.6092 0.784857C22.0312 0.703036 22.4544 0.627171 22.8788 0.557263C23.1027 0.521055 23.327 0.484846 23.5522 0.45193C24.0079 0.385156 24.4668 0.327788 24.9281 0.275591C25.1134 0.254901 25.2977 0.228568 25.4839 0.211169C26.1286 0.146747 26.7771 0.0945508 27.4307 0.0588129C27.5318 0.0536403 27.6339 0.05317 27.735 0.0479975C28.2905 0.0216643 28.849 0.00598974 29.4104 0.00097389C29.6314 -0.00137729 29.8534 0.00097389 30.0753 0.00332507C30.5283 0.0055195 30.9829 0.0146107 31.439 0.0305987C31.6793 0.039063 31.9196 0.0489379 32.1613 0.0616343C32.6292 0.0856163 33.0989 0.119003 33.572 0.158033C33.7869 0.175431 34.0004 0.190009 34.2158 0.210699C34.8976 0.276532 35.5823 0.35177 36.2716 0.450049C37.0376 0.557733 37.798 0.689869 38.5556 0.833761C38.7756 0.875142 38.9948 0.921225 39.2139 0.965897C39.7866 1.08252 40.3567 1.20932 40.9241 1.34632C41.1282 1.39334 41.3323 1.44037 41.5354 1.49397C42.2775 1.68207 43.0153 1.88568 43.7456 2.1081C43.8448 2.13819 43.9426 2.17299 44.0418 2.20215C44.6801 2.40059 45.3139 2.61172 45.9434 2.83555C46.1607 2.91267 46.3765 2.99214 46.5928 3.07067C47.1496 3.27664 47.7029 3.49216 48.2528 3.71725C48.4282 3.78872 48.605 3.85832 48.7799 3.9312C49.4326 4.20629 50.081 4.49125 50.7224 4.79267C50.7695 4.81384 50.8118 4.8397 50.8569 4.85945C51.1066 4.97748 51.3516 5.10538 51.5994 5.22717C52.0857 5.46652 52.5714 5.70728 53.0506 5.96121C53.336 6.11216 53.6149 6.27157 53.8998 6.42768C54.3362 6.66892 54.7716 6.91156 55.2024 7.16454C55.4953 7.33665 55.7845 7.51487 56.0747 7.69262C56.488 7.94561 56.8985 8.20188 57.3057 8.46569C57.5976 8.65378 57.8879 8.84595 58.1766 9.04219C58.368 9.17104 58.5636 9.29283 58.7536 9.4245C58.8782 9.51055 58.9958 9.60836 59.1199 9.69582C59.9687 10.2926 60.8066 10.9086 61.6258 11.5518C61.701 11.6111 61.7791 11.6661 61.8543 11.7258C62.7365 12.4251 63.5942 13.1582 64.4406 13.9091C64.5347 13.9938 64.6372 14.07 64.7317 14.1551C64.8648 14.275 64.9894 14.4057 65.1215 14.5266C65.7294 15.0836 66.3269 15.6536 66.9141 16.2363C67.1054 16.4244 67.3001 16.6125 67.4892 16.8039C68.2362 17.5647 68.9655 18.3447 69.6772 19.1438C69.7096 19.1805 69.7444 19.2143 69.7768 19.251C69.8855 19.3737 69.9847 19.5049 70.0919 19.6272C70.6637 20.2855 71.2225 20.9553 71.7683 21.6365C71.9718 21.8911 72.1733 22.1469 72.373 22.4039C72.9009 23.0848 73.4155 23.7769 73.9168 24.48C74.0179 24.6211 74.1279 24.7561 74.2276 24.8985C74.2587 24.9423 74.2859 24.9893 74.3165 25.0335C74.9598 25.9555 75.5789 26.8959 76.1739 27.8549C76.3207 28.09 76.4608 28.3299 76.6047 28.5678C77.0815 29.355 77.5415 30.1526 77.9848 30.9608C78.0718 31.1193 78.1701 31.2712 78.2561 31.4311C78.321 31.5519 78.3803 31.676 78.4442 31.7974C78.5891 32.071 78.7264 32.3471 78.8703 32.6231C79.112 33.0958 79.3483 33.5711 79.5794 34.0489C79.7189 34.3401 79.8567 34.6323 79.9927 34.9254C80.2159 35.4078 80.4327 35.8937 80.6431 36.3831C80.7672 36.6695 80.8923 36.9549 81.0122 37.2432C81.2365 37.7825 81.45 38.3247 81.6602 38.8735C81.7514 39.1109 81.8483 39.3465 81.9362 39.5854C81.9569 39.6414 81.9804 39.6964 82.0011 39.7528C82.145 40.145 82.2724 40.5438 82.4088 40.9392C82.5452 41.3347 82.6909 41.7292 82.8174 42.1284C82.9651 42.5855 83.0996 43.0482 83.2345 43.5095C83.3526 43.9055 83.4781 44.2991 83.5881 44.6983C83.7189 45.1685 83.8327 45.6467 83.9521 46.1217C84.0513 46.5167 84.1581 46.9084 84.2498 47.3053C84.3617 47.7891 84.4553 48.2782 84.5554 48.763C84.6363 49.1566 84.7261 49.5483 84.799 49.9442C84.893 50.4493 84.9673 50.959 85.0482 51.4673C85.1089 51.8487 85.179 52.2282 85.2326 52.6114C85.3073 53.1465 85.3619 53.6854 85.4207 54.2229C85.4616 54.5845 85.5123 54.9442 85.5462 55.3073C85.6031 55.9096 85.6403 56.5153 85.676 57.121C85.6953 57.4214 85.723 57.7205 85.7399 58.0219C85.7838 58.9311 85.8067 59.8425 85.8086 60.7564C85.8439 79.7407 76.6931 95.1169 62.8785 102.632L53.0111 108C66.8261 100.485 75.9769 85.1084 75.9416 66.1241C75.9398 65.21 75.9167 64.2985 75.8725 63.3897C75.8579 63.0878 75.8288 62.7897 75.809 62.4901Z" fill="url(#paint0_linear_32_24566)"/>
<defs>
<linearGradient id="paint0_linear_32_24566" x1="2.37374" y1="-45.1482" x2="-78.4431" y2="76.6469" gradientUnits="userSpaceOnUse">
<stop stop-color="#ECE5BA"/>
<stop offset="1" stop-color="#C6C09C"/>
</linearGradient>
</defs>
</svg>
