<svg width="51" height="182" viewBox="0 0 51 182" fill="none" xmlns="http://www.w3.org/2000/svg">
<path d="M0.341739 87.2226L5.96786 85.9752L0.747403 82.3055C0.552928 82.1687 0.505322 81.8968 0.642569 81.7023C0.779309 81.5068 1.05026 81.4592 1.24575 81.5969L10.573 88.1539L11.3559 81.368C11.3838 81.1351 11.5985 80.9593 11.8366 80.9877C12.0736 81.016 12.2427 81.2303 12.2169 81.4683L11.3792 88.7211L18.2299 93.463C17.447 87.9989 17.9661 81.8102 21.2013 72.1618C23.9148 64.0663 25.8175 56.9482 27.227 50.653L27.2209 50.652L19.0575 39.3887L12.5471 38.6194C12.3101 38.591 12.1409 38.3753 12.1678 38.1372C12.1931 37.9002 12.4119 37.7311 12.6499 37.7584L18.3728 38.434L14.6524 33.2495C14.5131 33.055 14.5582 32.7836 14.7517 32.6443C14.9461 32.5055 15.2176 32.5501 15.3559 32.7441L22.003 42.007L24.9778 35.8577C25.0801 35.646 25.3415 35.5508 25.5567 35.6567C25.7709 35.761 25.8606 36.0193 25.7573 36.2355L22.5778 42.8077L27.4959 49.5581C31.8498 29.5676 30.605 19.0685 30.5862 18.9318L32.7214 18.6486L31.9076 7.99959L26.7438 3.96119C26.5559 3.81432 26.5235 3.54134 26.6704 3.35244C26.8152 3.16252 27.0892 3.13213 27.2791 3.2785L31.8189 6.8292L31.3327 0.466198C31.3145 0.228168 31.4933 0.0195115 31.7318 0.0012794C31.9693 -0.0169527 32.1785 0.161823 32.1962 0.400359L33.0648 11.7676L38.8008 8.05783C38.9978 7.93072 39.2703 7.98491 39.3994 8.18698C39.5286 8.38804 39.4708 8.65544 39.2703 8.7861L33.1392 12.7506L33.5814 18.5337L34.022 18.4754C34.0934 19.0138 35.125 28.4236 31.7161 46.0895L39.129 42.6613L39.5478 35.3725C39.562 35.134 39.7666 34.9517 40.0046 34.9648C40.2442 34.977 40.4255 35.1872 40.4123 35.4217L40.0203 42.2415L50.3331 37.3811C50.5494 37.2798 50.8076 37.373 50.9094 37.5887C51.0112 37.8045 50.918 38.0633 50.7023 38.1651L44.9298 40.8852L50.2587 43.0786C50.4795 43.1708 50.5883 43.425 50.4957 43.6443C50.4035 43.8662 50.1498 43.972 49.9295 43.8813L43.8673 41.3861L31.5196 47.1338C30.0514 54.4924 27.8924 63.097 24.4846 73.2624C22.4461 79.3453 21.5624 83.8846 21.4059 87.7695L28.2257 83.0798L27.4113 75.8245C27.3855 75.5864 27.5562 75.3732 27.7927 75.3454C28.0307 75.317 28.2449 75.4943 28.2718 75.7267L29.0335 82.5156L38.381 75.988C38.5764 75.8513 38.8474 75.8994 38.9841 76.0954C39.1209 76.2909 39.0728 76.5618 38.8768 76.6986L33.6447 80.3521L39.2672 81.6162C39.5012 81.6699 39.6506 81.9018 39.5959 82.1338C39.5422 82.3678 39.3108 82.5151 39.0783 82.4625L32.6819 81.0241L21.4033 88.8204C21.3785 94.1887 22.7743 98.3765 24.6436 103.718C26.9788 110.391 29.9861 119.004 31.4715 134.004L37.9839 130.331L37.8168 123.032C37.8122 122.793 38.0006 122.595 38.2391 122.589C38.4792 122.581 38.6767 122.777 38.6818 123.011L38.8393 129.841L48.7287 124.168C48.9353 124.049 49.2012 124.121 49.3197 124.328C49.4382 124.535 49.3663 124.8 49.1597 124.919L43.6242 128.095L49.1121 129.853C49.34 129.927 49.4681 130.171 49.3931 130.397C49.3192 130.625 49.0756 130.751 48.8487 130.679L42.6052 128.679L31.5515 134.95C32.6171 146.381 32.8131 161.41 31.194 182L27.739 181.729C29.6944 156.864 28.9833 140.252 27.2908 128.371C27.1632 128.434 27.0426 128.546 26.9115 128.468L14.9173 121.421L8.64493 123.326C8.41653 123.396 8.17495 123.265 8.10405 123.037C8.03264 122.81 8.16432 122.567 8.39323 122.496L13.9074 120.821L8.42007 117.563C8.21547 117.441 8.1476 117.174 8.26915 116.969C8.3912 116.764 8.6576 116.696 8.86271 116.818L18.666 122.639L18.9263 115.814C18.9354 115.579 19.136 115.387 19.376 115.398C19.6136 115.407 19.7999 115.608 19.7913 115.847L19.5133 123.143L27.1789 127.621C25.6094 117.051 23.2686 110.28 21.3724 104.861C20.0937 101.206 18.9785 98.0139 18.3682 94.5929L18.3449 94.5969L6.92707 86.6508L0.526592 88.0688C0.29464 88.12 0.0631936 87.9721 0.0105232 87.7386C-0.0421473 87.5067 0.108267 87.2757 0.341739 87.2226Z" fill="#DB97FF"/>
</svg>
