<svg width="62" height="67" viewBox="0 0 62 67" fill="none" xmlns="http://www.w3.org/2000/svg">
<g style="mix-blend-mode:multiply" opacity="0.2">
<path d="M0 66.7805C0.0103 66.7894 0.0191954 66.8021 0.0294954 66.811L58.0765 41.8433C61.1623 40.5178 62.7239 37.0542 61.674 33.8641C61.615 33.6815 61.5481 33.5022 61.4713 33.3238L48.8262 3.92578C47.7679 1.46492 45.3063 -0.0928197 42.6293 0.00429342C41.9073 0.0296233 41.1949 0.17749 40.5225 0.441575C40.4504 0.46592 40.3778 0.49682 40.3053 0.528188L37.6305 1.67851C39.0819 2.78763 40.6381 3.83542 41.5403 4.99604C44.9557 9.48402 46.6152 15.0645 46.2072 20.6895C45.5821 28.6486 40.8811 35.712 35.5794 41.6841C25.8073 52.6743 13.6319 61.2623 0 66.7805Z" fill="url(#paint0_linear_32_24563)"/>
</g>
<defs>
<linearGradient id="paint0_linear_32_24563" x1="1261.82" y1="58.4596" x2="1331.51" y2="58.4596" gradientUnits="userSpaceOnUse">
<stop stop-color="#AA865D"/>
<stop offset="1" stop-color="#A67133"/>
</linearGradient>
</defs>
</svg>
