<svg width="395" height="392" viewBox="0 0 395 392" fill="none" xmlns="http://www.w3.org/2000/svg">
<path opacity="0.5" d="M47.0685 189.013C49.4221 223.483 48.474 258.409 55.8372 292.164C63.2004 325.919 80.4117 359.447 110.225 376.907C138.932 393.72 174.476 393.156 207.434 388.618C246.828 383.195 286.132 372.535 319.867 351.476C353.602 330.418 381.423 298.07 391.336 259.56C401.248 221.05 391.003 176.58 361.169 150.287C339.121 130.855 306.561 119.834 296.942 92.0639C288.79 68.5293 300.577 39.977 287.357 18.8699C278.603 4.89389 260.646 -1.3091 244.225 0.229209C227.805 1.76752 212.701 9.81947 199.077 19.1153C185.454 28.4111 172.752 39.129 158.318 47.1072C130.286 62.6018 96.2182 66.8118 65.2574 58.6071C53.9801 55.6184 42.9667 51.0333 31.3128 50.4382C19.6589 49.843 6.68881 54.4195 1.70478 64.9666C-7.18789 83.7858 21.2553 92.8233 28.4078 106.794C41.2329 131.852 45.1721 161.28 47.0685 189.013Z" fill="#59CFB4"/>
</svg>
