<svg width="62" height="71" viewBox="0 0 62 71" fill="none" xmlns="http://www.w3.org/2000/svg">
<path fill-rule="evenodd" clip-rule="evenodd" d="M34.4817 6.79068V9.28064C49.9487 11.0914 61.8703 24.2199 61.8708 40.0648C61.8708 57.0418 48.063 71 30.9356 71C13.8832 71 0 57.0413 0 40.0648C0 24.069 12.1479 11.0159 27.6155 9.28064V6.79068H25.5784C24.4463 6.79068 23.6167 5.73411 23.6167 4.60259V2.11262C23.6167 1.05606 24.4463 0 25.5784 0H36.2924C37.4244 0 38.481 1.05606 38.481 2.11262V4.60259C38.481 5.73411 37.4244 6.79068 36.2924 6.79068H34.4817ZM6.86613 40.0655C6.86613 53.2695 17.7311 64.1345 30.9351 64.1345C44.2895 64.1345 55.0041 53.2695 55.0041 40.0655C55.0041 26.7106 44.2895 15.8456 30.9351 15.8456C17.7311 15.8456 6.86613 26.7106 6.86613 40.0655Z" fill="#9FFBFB"/>
</svg>
