<svg width="324" height="219" viewBox="0 0 324 219" fill="none" xmlns="http://www.w3.org/2000/svg">
<path fill-rule="evenodd" clip-rule="evenodd" d="M15.8634 0H308.213C316.893 0 324.001 7.10816 324 15.7886V203.305C323.926 205.326 323.402 207.346 322.728 209.142C320.259 214.828 314.722 218.72 308.212 218.72H15.8629C8.90442 218.72 2.91791 214.23 0.822779 207.945C0.299376 206.373 0 204.727 0 202.931V15.7886C0 7.10816 7.10867 0 15.8634 0ZM305.669 192.005C310.083 192.005 313.6 188.488 313.6 184.074H313.6V22.6713C313.6 18.2565 310.083 14.7398 305.669 14.7398H18.2576C16.0882 14.7398 14.1422 15.5631 12.7207 17.0595C11.2992 18.5558 10.401 20.5013 10.401 22.6713V184.148C10.401 185.271 10.6256 186.243 10.9998 187.216C11.149 187.665 11.4484 188.114 11.7477 188.563C12.0471 188.937 12.3465 189.311 12.7207 189.685C14.1422 191.182 16.0877 192.005 18.2576 192.005H305.669Z" fill="#A100FF"/>
</svg>
