<svg width="324" height="219" viewBox="0 0 324 219" fill="none" xmlns="http://www.w3.org/2000/svg">
<path fill-rule="evenodd" clip-rule="evenodd" d="M15.8051 0H308.195C316.927 0 324 7.11202 324 15.8051V202.975C324 205.188 323.526 207.321 322.736 209.217C320.286 214.868 314.715 218.779 308.195 218.779H15.8051C8.85083 218.779 2.92381 214.275 0.829955 208.032C0.276652 206.451 0 204.753 0 202.974V15.8051C0 7.11202 7.07257 0 15.8051 0ZM305.706 192.068C310.092 192.068 313.608 188.552 313.608 184.166V22.6794C313.608 18.3329 310.092 14.7769 305.706 14.7769H18.2545C13.908 14.7769 10.3519 18.3329 10.3519 22.6794V184.166C10.3519 188.552 13.9085 192.068 18.2545 192.068H305.706Z" fill="#A100FF"/>
</svg>
