<svg width="133" height="87" viewBox="0 0 133 87" fill="none" xmlns="http://www.w3.org/2000/svg">
<path fill-rule="evenodd" clip-rule="evenodd" d="M74.0574 0C88.3697 0 101.879 7.22269 109.86 18.9935C123.637 23.8535 133 36.9617 133 51.7641C133 70.9364 117.395 86.5413 98.2228 86.5413H37.4523C16.8091 86.5413 0 69.7327 0 49.0449C0 28.4017 16.8091 11.5926 37.4523 11.5926C39.6814 11.5926 41.8663 11.7708 44.0066 12.1274C52.0317 4.36937 62.7772 0 74.0574 0ZM37.4522 73.1657H98.2227C110.038 73.1657 119.625 63.5798 119.624 51.7648C119.624 42.09 113.115 33.5742 103.84 31.0769L101.21 30.4085L99.8281 28.0453C94.4333 18.9942 84.5798 13.3765 74.0573 13.3765C65.2739 13.3765 57.0253 17.211 51.3186 23.8542L48.5095 27.1982L44.3184 25.9498C42.1339 25.2809 39.8154 24.9685 37.4522 24.9685C24.1653 24.9685 13.3757 35.7587 13.3757 49.045C13.3757 62.3314 24.1658 73.1657 37.4522 73.1657Z" fill="#FFB6FF"/>
</svg>
