<svg width="151" height="238" viewBox="0 0 151 238" fill="none" xmlns="http://www.w3.org/2000/svg">
<path opacity="0.1" fill-rule="evenodd" clip-rule="evenodd" d="M111.762 105.271L107.497 105.346L91.1864 74.296L90.5128 74.5205C91.3199 73.7863 91.1917 69.9561 91.1159 67.6918L91.1115 67.5622L95.9001 62.6988C98.9673 59.7059 98.9673 54.7682 95.9001 51.7752L77.1201 32.9953L46.4438 2.24459C44.9475 0.747859 42.9275 0 40.9074 0C38.9621 0 37.0169 0.747859 35.4458 2.24459L2.30084 35.4644C-0.766948 38.5322 -0.766948 43.3951 2.30084 46.388L17.1149 61.2021L30.1334 74.2954L51.7561 95.9181C53.1775 97.3395 54.8234 98.0131 56.5447 98.1627C57.0685 98.2376 57.5175 98.2376 57.9661 98.1627C59.7616 98.0131 61.4075 97.2647 62.7541 95.9181L83.0302 75.642L83.0304 75.6423C83.18 75.8667 83.3297 76.0912 83.6289 76.4647L83.2547 76.5395C83.3594 76.8534 83.464 77.1703 83.5692 77.4889C83.9906 78.7654 84.4215 80.0704 84.9006 81.3281C86.098 85.0689 87.4446 88.66 88.9408 92.2517C92.2331 100.631 95.9739 108.562 100.239 116.044C102.857 117.166 107.123 118.438 111.761 119.635C115.127 120.458 118.719 121.207 122.161 121.806V105.046L111.762 105.271ZM106.375 203.957C112.884 203.957 118.421 200.066 120.89 194.38C121.563 192.585 122.087 190.565 122.161 188.545C110.64 188.395 101.362 189.143 99.1173 194.53C98.4438 196.625 97.8451 199.917 97.3961 203.957C96.3489 213.085 95.825 226.029 95.5257 238H111.687C112.959 228.573 113.857 219.22 113.632 213.534C115.466 214.007 117.067 214.294 118.655 214.578L118.655 214.578C119.075 214.653 119.494 214.728 119.917 214.806L127.025 236.429C132.337 234.783 137.051 231.865 140.866 228.049C141.39 227.525 141.914 226.927 142.363 226.329L145.056 217.5C145.413 217.597 145.77 217.708 146.133 217.822C146.607 217.97 147.092 218.121 147.6 218.248C147.9 217.724 148.124 217.126 148.348 216.527C149.994 212.636 150.817 208.371 150.817 203.957H106.375ZM138.802 217.505C138.917 218.002 139.032 218.499 139.146 218.997L139.895 215.929C139.446 216.004 138.997 216.079 138.473 216.079C138.583 216.554 138.692 217.029 138.802 217.505Z" fill="black"/>
</svg>
