<svg width="24" height="19" viewBox="0 0 24 19" fill="none" xmlns="http://www.w3.org/2000/svg">
<path d="M13.2288 0.00111918C13.7203 -0.0109675 14.1796 0.0749825 14.5717 0.252254C14.9639 0.429525 15.2741 0.692745 15.4796 1.02043C15.6851 1.34811 15.7777 1.72951 15.7509 2.13509C15.724 2.53798 15.5763 2.95429 15.3225 3.3451L19.5864 3.23229C19.855 3.22423 20.1101 3.26183 20.3384 3.34107C20.5667 3.42164 20.7628 3.53982 20.9159 3.69427C21.0663 3.84429 21.1743 4.0315 21.2288 4.23682C21.2825 4.44095 21.2839 4.6612 21.2315 4.88547L20.3989 8.45104C20.8957 8.30063 21.402 8.24422 21.8761 8.2872C22.3502 8.33017 22.7786 8.46984 23.1251 8.6968C23.4729 8.92242 23.7281 9.22862 23.8691 9.58719C24.0101 9.94576 24.0343 10.3486 23.9376 10.7596C23.8268 11.1997 23.6143 11.6077 23.3171 11.9508C22.9889 12.3345 22.5917 12.6534 22.146 12.8909C21.6894 13.1393 21.1885 13.3045 20.6889 13.3743C20.2152 13.4441 19.7321 13.414 19.2708 13.2857L18.4381 16.8513C18.3802 17.0892 18.2757 17.3133 18.1306 17.5107C17.9802 17.7215 17.7854 17.9136 17.5585 18.0774C17.329 18.2431 17.0766 18.3743 16.8091 18.4669C16.5405 18.5609 16.2639 18.6119 15.9953 18.6186L11.7381 18.7314C11.9919 18.3406 12.1396 17.9243 12.1678 17.5187C12.1988 17.1279 12.1043 16.7374 11.8979 16.4041C11.6774 16.0629 11.3605 15.7951 10.9874 15.6345C10.5638 15.4509 10.1043 15.3651 9.64307 15.3834C8.61308 15.4214 7.63172 15.8312 6.88059 16.537C6.53468 16.8559 6.26246 17.2464 6.08287 17.6812C5.92172 18.0895 5.87471 18.5031 5.94858 18.8859L1.68333 18.9987C1.42814 19.008 1.17337 18.9711 0.931268 18.8899C0.714255 18.8173 0.516725 18.696 0.353795 18.5353C0.203172 18.3849 0.0951885 18.1973 0.0408843 17.9914C-0.0131699 17.7778 -0.0136311 17.554 0.0395414 17.3401L0.868149 13.792C1.2979 13.9142 1.78271 13.9424 2.28095 13.8726C2.77784 13.8027 3.27474 13.6362 3.73135 13.3891C4.18392 13.142 4.58278 12.8197 4.89301 12.4504C5.20189 12.0811 5.41273 11.6755 5.50943 11.2659C5.6062 10.8795 5.58278 10.4729 5.44228 10.1002C5.29557 9.73402 5.0377 9.42308 4.70499 9.21116C4.33139 8.97538 3.9059 8.83432 3.46544 8.80021C2.97017 8.75835 2.47146 8.81169 1.99624 8.95734L2.82887 5.39177C2.93497 4.93919 3.25191 4.4987 3.70986 4.16833C4.16781 3.83796 4.73051 3.64458 5.27172 3.62846L9.53563 3.51565C9.46535 3.10971 9.51289 2.69212 9.67261 2.31236C9.83511 1.9041 10.1091 1.5133 10.4703 1.17084C10.8329 0.828384 11.2721 0.545019 11.7515 0.344918C12.22 0.147921 12.7208 0.038671 13.2288 0.0226069V0.00111918Z" fill="#FBBC05"/>
</svg>
