<svg width="5" height="6" viewBox="0 0 5 6" fill="none" xmlns="http://www.w3.org/2000/svg">
<path d="M2.50068 0L3.02529 1.42454C3.19748 1.88728 3.56336 2.25047 4.03014 2.41727L5.00001 2.76433L4.03014 3.11004C3.80022 3.19192 3.59107 3.32326 3.41744 3.49479C3.24382 3.66632 3.10996 3.87387 3.02529 4.10278L2.50068 5.52731L1.97471 4.10278C1.89019 3.874 1.75653 3.66655 1.58315 3.49502C1.40977 3.3235 1.20089 3.19209 0.971215 3.11004L0 2.76298L0.971215 2.41727C1.20089 2.33523 1.40977 2.20381 1.58315 2.03229C1.75653 1.86077 1.89019 1.65331 1.97471 1.42454L2.49933 0H2.50068Z" fill="white" fill-opacity="0.9"/>
</svg>
