<svg width="24" height="19" viewBox="0 0 24 19" fill="none" xmlns="http://www.w3.org/2000/svg">
<path d="M13.2279 0.0013636C13.7195 -0.012066 14.1787 0.0738837 14.5709 0.251155C14.963 0.428426 15.2746 0.691646 15.4787 1.01933C15.6842 1.34701 15.7769 1.72841 15.7487 2.13399C15.7218 2.53688 15.5754 2.95319 15.3216 3.344L19.5855 3.23119C19.8541 3.22447 20.1093 3.26073 20.3376 3.33997C20.5659 3.42055 20.762 3.54007 20.915 3.69317C21.0654 3.84323 21.1734 4.03042 21.228 4.23572C21.2817 4.43985 21.283 4.6601 21.2306 4.88438L20.398 8.44994C20.8949 8.29953 21.4012 8.24312 21.8753 8.2861C22.3493 8.32907 22.7791 8.46874 23.1242 8.6957C23.4734 8.92132 23.7272 9.22752 23.8682 9.58609C24.0092 9.946 24.0334 10.3475 23.9367 10.7585C23.8259 11.1986 23.6134 11.6066 23.3163 11.9497C22.9881 12.3339 22.5909 12.6532 22.1452 12.8911C21.6886 13.1382 21.1877 13.3034 20.6881 13.3719C20.2145 13.4422 19.7314 13.4124 19.2699 13.2846L18.4373 16.8502C18.3797 17.088 18.2756 17.3121 18.1311 17.5096C17.9793 17.7204 17.7846 17.9125 17.5576 18.0776C17.3277 18.2425 17.0753 18.3737 16.8083 18.4671C16.5397 18.5598 16.263 18.6108 15.9944 18.6175L11.7372 18.7303C11.9911 18.3395 12.1388 17.9245 12.167 17.519C12.1984 17.1277 12.1038 16.7366 11.8971 16.403C11.6766 16.0618 11.3597 15.7939 10.9865 15.6334C10.5629 15.4503 10.1034 15.3649 9.64222 15.3837C9.13314 15.4002 8.63147 15.5104 8.16228 15.7087C7.6815 15.9088 7.24235 16.1921 6.87975 16.5359C6.53384 16.8548 6.26161 17.2453 6.08203 17.6801C5.92087 18.0884 5.87387 18.502 5.94773 18.8848L1.68248 18.9989C1.42721 19.0078 1.17244 18.9705 0.930426 18.8888C0.713432 18.8162 0.515911 18.6949 0.352952 18.5342C0.202329 18.3838 0.0943459 18.1962 0.0400417 17.9903C-0.0133472 17.777 -0.0133472 17.5537 0.0400417 17.3404L0.867306 13.7909C1.29705 13.9131 1.78186 13.9413 2.2801 13.8715C2.78851 13.798 3.2797 13.6343 3.7305 13.388C4.18308 13.1409 4.58194 12.8199 4.89216 12.4506C5.20105 12.08 5.41323 11.6744 5.50858 11.2648C5.60536 10.8784 5.58193 10.4718 5.44144 10.0991C5.29456 9.73337 5.0367 9.42291 4.70415 9.2114C4.33072 8.97505 3.9052 8.83352 3.4646 8.79911C2.96977 8.75743 2.47153 8.81076 1.99674 8.95624L2.82937 5.39067C2.93413 4.93809 3.25106 4.4976 3.70901 4.16723C4.16697 3.83686 4.72967 3.64348 5.27088 3.62871L9.53479 3.51455C9.46451 3.10861 9.51205 2.69102 9.67177 2.31126C9.83427 1.903 10.1082 1.5122 10.4695 1.16974C10.8321 0.827285 11.2712 0.543921 11.752 0.345162C12.2205 0.148165 12.7213 0.0389151 13.2293 0.022851L13.2279 0.0013636Z" fill="#1760C6"/>
</svg>
